<svg width="189" height="60" viewBox="0 0 189 60" fill="none" xmlns="http://www.w3.org/2000/svg">
<path d="M97.6343 21.0607C96.3869 21.0607 95.3559 20.6407 94.5458 19.8009C93.7311 18.9611 93.326 17.9254 93.326 16.6936C93.326 15.4526 93.7311 14.4168 94.5458 13.5817C95.3605 12.7465 96.3869 12.3266 97.6343 12.3266C98.3845 12.3266 99.0749 12.5039 99.7101 12.8585C100.345 13.2131 100.842 13.6936 101.197 14.3048L99.7884 15.1306C99.5812 14.7574 99.2913 14.4635 98.9138 14.2488C98.5364 14.0389 98.1083 13.9316 97.6343 13.9316C96.8288 13.9316 96.1798 14.1882 95.6873 14.7014C95.1948 15.2146 94.9462 15.8771 94.9462 16.6936C94.9462 17.5008 95.1948 18.1633 95.6873 18.6719C96.1798 19.1851 96.8288 19.4417 97.6343 19.4417C98.1083 19.4417 98.5364 19.3344 98.9184 19.1244C99.3005 18.9145 99.5904 18.6205 99.7884 18.2566L101.197 19.0824C100.842 19.689 100.35 20.1742 99.7193 20.5288C99.0841 20.8834 98.3891 21.0607 97.6343 21.0607Z" fill="#DA261C"/>
<path d="M104.805 20.8927V19.6563L107.632 16.7076C108.262 16.0358 108.58 15.4759 108.58 15.028C108.58 14.7014 108.478 14.4355 108.276 14.2348C108.073 14.0342 107.816 13.9362 107.503 13.9362C106.881 13.9362 106.416 14.2628 106.117 14.9207L104.746 14.1042C105.008 13.5303 105.381 13.0871 105.869 12.7838C106.357 12.4806 106.895 12.3266 107.48 12.3266C108.23 12.3266 108.87 12.5645 109.408 13.0404C109.947 13.5163 110.214 14.1602 110.214 14.9673C110.214 15.8398 109.758 16.7356 108.851 17.6547L107.231 19.297H110.343V20.8927H104.805Z" fill="#DA261C"/>
<path d="M114.379 21.0607C113.344 21.0607 112.533 20.6641 111.949 19.8663C111.36 19.0731 111.065 18.014 111.065 16.6936C111.065 15.3733 111.36 14.3188 111.949 13.521C112.538 12.7232 113.348 12.3266 114.379 12.3266C115.419 12.3266 116.234 12.7232 116.819 13.521C117.403 14.3188 117.693 15.3733 117.693 16.6936C117.693 18.014 117.403 19.0731 116.819 19.8663C116.23 20.6641 115.419 21.0607 114.379 21.0607ZM113.123 18.7418C113.408 19.2084 113.822 19.4417 114.375 19.4417C114.927 19.4417 115.346 19.2037 115.636 18.7325C115.926 18.2613 116.068 17.5801 116.068 16.6936C116.068 15.7978 115.926 15.1166 115.636 14.6408C115.346 14.1695 114.927 13.9316 114.375 13.9316C113.822 13.9316 113.403 14.1695 113.123 14.6408C112.837 15.112 112.695 15.7978 112.695 16.6936C112.699 17.5941 112.837 18.2753 113.123 18.7418Z" fill="#DA261C"/>
<path d="M120.174 12.4992H121.592V20.8973H119.958V14.2488L118.397 14.6921L117.997 13.2784L120.174 12.4992Z" fill="#DA261C"/>
<path d="M125.762 15.5552C126.558 15.5552 127.23 15.7978 127.773 16.2831C128.316 16.7683 128.588 17.4401 128.588 18.3033C128.588 19.1664 128.303 19.8429 127.732 20.3282C127.161 20.8181 126.461 21.0607 125.633 21.0607C124.961 21.0607 124.372 20.9067 123.856 20.6034C123.345 20.3002 122.973 19.8523 122.742 19.2597L124.137 18.4339C124.344 19.1058 124.841 19.4417 125.628 19.4417C126.047 19.4417 126.374 19.339 126.604 19.1338C126.839 18.9285 126.954 18.6532 126.954 18.2986C126.954 17.9534 126.839 17.6781 126.609 17.4728C126.379 17.2628 126.07 17.1602 125.674 17.1602H123.166L123.497 12.4946H128.197V14.0436H125.012L124.906 15.5552H125.762Z" fill="#DA261C"/>
<path d="M133.674 14.8973V16.3857H131.152V20.8973H129.624V14.8973H133.674Z" fill="#DA261C"/>
<path d="M135.014 20.7527C134.816 20.9533 134.581 21.0513 134.305 21.0513C134.029 21.0513 133.794 20.9533 133.596 20.7527C133.398 20.5521 133.301 20.3141 133.301 20.0342C133.301 19.7543 133.398 19.5163 133.596 19.3157C133.794 19.1151 134.029 19.0171 134.305 19.0171C134.581 19.0171 134.816 19.1151 135.014 19.3157C135.211 19.5163 135.308 19.7543 135.308 20.0342C135.308 20.3095 135.211 20.5521 135.014 20.7527Z" fill="#DA261C"/>
<path d="M3.53498 54.0466H4.24381V58.4137H3.53498V56.5241H1.68466V58.4137H0.97583V54.0466H1.68466V55.8382H3.53498V54.0466Z" fill="#2B3131"/>
<path d="M7.92141 58.4137L7.61763 57.5319H5.77651L5.47273 58.4137H4.69946L6.26901 54.0466H7.12053L8.68087 58.4137H7.92141ZM6.01586 56.86H7.38749L6.70167 54.8864L6.01586 56.86Z" fill="#2B3131"/>
<path d="M13.408 54.0466H14.1168V58.4137H9.15039V54.0466H9.85922V57.7278H11.2769V54.0466H11.9857V57.7278H13.4034V54.0466H13.408Z" fill="#2B3131"/>
<path d="M19.7828 58.4137H18.9359L17.2329 56.3375V58.4137H16.524V54.0466H17.2329V56.0062L18.8761 54.0466H19.723L17.9785 56.1742L19.7828 58.4137Z" fill="#2B3131"/>
<path d="M19.9255 58.4137V57.7512C20.1971 57.7885 20.3996 57.7232 20.5331 57.5505C20.6666 57.3779 20.7356 57.0513 20.7356 56.5708V54.042H23.6308V58.409H22.9219V54.7278H21.4491V56.5568C21.4491 56.9393 21.4076 57.2613 21.3294 57.5226C21.2511 57.7838 21.1361 57.9798 20.9888 58.1104C20.8415 58.2411 20.6804 58.3297 20.5101 58.3717C20.3306 58.423 20.1419 58.4323 19.9255 58.4137Z" fill="#2B3131"/>
<path d="M27.0828 58.4137V55.451L25.0484 58.4137H24.4915V54.0466H25.2003V57.0093L27.2347 54.0466H27.7917V58.4137H27.0828Z" fill="#2B3131"/>
<path d="M29.3658 57.7278H31.2806V58.4137H28.657V54.0466H31.2483V54.7325H29.3658V55.8662H31.0919V56.5474H29.3658V57.7278Z" fill="#2B3131"/>
<path d="M34.4887 54.0466H35.1975V58.4137H34.4887V56.5241H32.6384V58.4137H31.9296V54.0466H32.6384V55.8382H34.4887V54.0466Z" fill="#2B3131"/>
<path d="M38.8705 54.0466V54.7325H37.6554V58.4137H36.9465V54.7325H35.7268V54.0466H38.8705Z" fill="#2B3131"/>
<path d="M43.4825 56.1462C43.6712 56.2442 43.8185 56.3841 43.929 56.5568C44.0348 56.7341 44.0901 56.9347 44.0901 57.1633C44.0901 57.5225 43.9658 57.8165 43.7127 58.0544C43.4595 58.2924 43.1557 58.409 42.7921 58.409H40.9418V54.042H42.6586C43.013 54.042 43.3122 54.1586 43.5562 54.3872C43.8001 54.6159 43.9244 54.9051 43.9244 55.2504C43.9198 55.633 43.7725 55.9316 43.4825 56.1462ZM42.654 54.7185H41.646V55.8663H42.654C42.8105 55.8663 42.944 55.8103 43.0498 55.703C43.1557 55.591 43.2109 55.4557 43.2109 55.2924C43.2109 55.1291 43.1557 54.9938 43.0498 54.8818C42.944 54.7698 42.8105 54.7185 42.654 54.7185ZM42.7921 57.7372C42.9578 57.7372 43.0959 57.6765 43.2109 57.5599C43.326 57.4432 43.3812 57.2986 43.3812 57.126C43.3812 56.9533 43.326 56.8087 43.2109 56.6921C43.0959 56.5754 42.9578 56.5148 42.7921 56.5148H41.6506V57.7372H42.7921Z" fill="#2B3131"/>
<path d="M46.746 58.493C46.097 58.493 45.5584 58.2737 45.1304 57.8398C44.7023 57.4059 44.4906 56.8694 44.4906 56.2255C44.4906 55.5863 44.7023 55.0451 45.1304 54.6112C45.5584 54.1773 46.097 53.958 46.746 53.958C47.1372 53.958 47.4962 54.0513 47.8276 54.2379C48.159 54.4246 48.4168 54.6812 48.6009 54.9984L47.9841 55.3624C47.869 55.1477 47.6987 54.9751 47.4824 54.8491C47.2615 54.7232 47.0175 54.6579 46.746 54.6579C46.2857 54.6579 45.9129 54.8072 45.6275 55.1011C45.3421 55.395 45.1994 55.7729 45.1994 56.2255C45.1994 56.6781 45.3421 57.0513 45.6275 57.3499C45.9129 57.6439 46.2857 57.7932 46.746 57.7932C47.0175 57.7932 47.2661 57.7278 47.487 57.6019C47.7079 57.4759 47.8782 57.3033 47.9887 57.0886L48.6055 57.4432C48.426 57.7652 48.1682 58.0171 47.8368 58.2084C47.5054 58.3997 47.1418 58.493 46.746 58.493Z" fill="#2B3131"/>
<path d="M49.8988 57.7278H51.8135V58.4137H49.1899V54.0466H51.7813V54.7325H49.8988V55.8662H51.6248V56.5474H49.8988V57.7278Z" fill="#2B3131"/>
<path d="M54.8974 54.0466V54.7325H53.1713V58.4137H52.4625V54.0466H54.8974Z" fill="#2B3131"/>
<path d="M58.414 57.7278H58.8789V59.2488H58.1701V58.4137H55.5465V59.2488H54.8376V57.7278H55.2381C55.4912 57.3966 55.6155 56.8927 55.6155 56.2255V54.0466H58.4186V57.7278H58.414ZM56.016 57.7278H57.7052V54.7185H56.3243V56.2348C56.3243 56.8833 56.2231 57.3826 56.016 57.7278Z" fill="#2B3131"/>
<path d="M62.3263 58.4137L62.0225 57.5319H60.1814L59.8776 58.4137H59.1044L60.6693 54.0466H61.5208L63.0812 58.4137H62.3263ZM60.4208 56.86H61.7924L61.1066 54.8864L60.4208 56.86Z" fill="#2B3131"/>
<path d="M68.2777 54.0466V58.4137H67.5689V54.7325H65.8106V58.4137H65.1018V54.0466H68.2777Z" fill="#2B3131"/>
<path d="M70.7356 54.0466C71.1407 54.0466 71.4813 54.1819 71.7574 54.4572C72.029 54.7325 72.1671 55.0731 72.1671 55.479C72.1671 55.8802 72.029 56.2208 71.7574 56.5008C71.4859 56.776 71.1453 56.916 70.7356 56.916H69.8519V58.4137H69.1431V54.0466H70.7356ZM70.7356 56.2395C70.9474 56.2395 71.1177 56.1695 71.2557 56.0249C71.3892 55.8802 71.4583 55.6983 71.4583 55.479C71.4583 55.2597 71.3892 55.0777 71.2557 54.9331C71.1177 54.7885 70.9474 54.7185 70.7356 54.7185H69.8519V56.2395H70.7356Z" fill="#2B3131"/>
<path d="M75.1635 58.4137L74.8597 57.5319H73.0186L72.7148 58.4137H71.9415L73.5065 54.0466H74.358L75.9183 58.4137H75.1635ZM73.2579 56.86H74.6296L73.9437 54.8864L73.2579 56.86Z" fill="#2B3131"/>
<path d="M78.9332 56.1462C79.1219 56.2442 79.2692 56.3841 79.3797 56.5568C79.4855 56.7341 79.5408 56.9347 79.5408 57.1633C79.5408 57.5225 79.4165 57.8165 79.1633 58.0544C78.9102 58.2924 78.6064 58.409 78.2428 58.409H76.3925V54.042H78.1093C78.4637 54.042 78.7629 54.1586 79.0068 54.3872C79.2508 54.6159 79.3751 54.9051 79.3751 55.2504C79.3751 55.633 79.2278 55.9316 78.9332 56.1462ZM78.1093 54.7185H77.1013V55.8663H78.1093C78.2658 55.8663 78.3993 55.8103 78.5051 55.703C78.611 55.591 78.6662 55.4557 78.6662 55.2924C78.6662 55.1291 78.611 54.9938 78.5051 54.8818C78.3947 54.7745 78.2658 54.7185 78.1093 54.7185ZM78.2428 57.7372C78.4085 57.7372 78.5466 57.6765 78.6616 57.5599C78.7767 57.4432 78.8319 57.2986 78.8319 57.126C78.8319 56.9533 78.7767 56.8087 78.6616 56.6921C78.5466 56.5754 78.4085 56.5148 78.2428 56.5148H77.1013V57.7372H78.2428Z" fill="#2B3131"/>
<path d="M80.6546 58.3484C80.5626 58.4417 80.4567 58.4837 80.3278 58.4837C80.199 58.4837 80.0931 58.437 80.001 58.3484C79.909 58.255 79.8676 58.1477 79.8676 58.0171C79.8676 57.8865 79.9136 57.7792 80.001 57.6858C80.0885 57.5925 80.199 57.5505 80.3324 57.5505C80.4613 57.5505 80.5672 57.5972 80.6592 57.6858C80.7513 57.7792 80.7927 57.8865 80.7927 58.0171C80.7927 58.1477 80.7467 58.2597 80.6546 58.3484Z" fill="#2B3131"/>
<path d="M82.2287 58.3484C82.1367 58.4417 82.0308 58.4837 81.9019 58.4837C81.7731 58.4837 81.6672 58.437 81.5751 58.3484C81.4831 58.255 81.4417 58.1477 81.4417 58.0171C81.4417 57.8865 81.4877 57.7792 81.5751 57.6858C81.6626 57.5925 81.773 57.5505 81.9065 57.5505C82.0354 57.5505 82.1413 57.5972 82.2333 57.6858C82.3254 57.7792 82.3668 57.8865 82.3668 58.0171C82.3668 58.1477 82.3208 58.2597 82.2287 58.3484Z" fill="#2B3131"/>
<path d="M83.8029 58.3484C83.7109 58.4417 83.605 58.4837 83.4761 58.4837C83.3473 58.4837 83.2414 58.437 83.1493 58.3484C83.0573 58.255 83.0159 58.1477 83.0159 58.0171C83.0159 57.8865 83.0619 57.7792 83.1493 57.6858C83.2368 57.5925 83.3473 57.5505 83.4807 57.5505C83.6096 57.5505 83.7155 57.5972 83.8075 57.6858C83.8996 57.7792 83.941 57.8865 83.941 58.0171C83.941 58.1477 83.895 58.2597 83.8029 58.3484Z" fill="#2B3131"/>
<path d="M88.8291 58.4137V55.451L86.7901 58.4137H86.2332V54.0466H86.942V57.0093L88.9764 54.0466H89.5333V58.4137H88.8291Z" fill="#2B3131"/>
<path d="M96.0786 54.0466V58.4137H95.3697V55.3017L94.0533 57.4992H93.9659L92.6495 55.297V58.4183H91.9407V54.0513H92.7047L94.0073 56.2348L95.3145 54.0513H96.0786V54.0466Z" fill="#2B3131"/>
<path d="M96.9438 58.4137V54.0466H97.6527V55.5443H98.5364C98.9415 55.5443 99.2821 55.6843 99.5582 55.9595C99.8298 56.2348 99.9679 56.5754 99.9679 56.9813C99.9679 57.3826 99.8298 57.7231 99.5582 58.0031C99.2867 58.2784 98.9461 58.4183 98.5364 58.4183H96.9438V58.4137ZM97.6527 57.7371H98.5364C98.7481 57.7371 98.9184 57.6672 99.0565 57.5225C99.19 57.3779 99.259 57.1959 99.259 56.9766C99.259 56.7574 99.19 56.5754 99.0565 56.4308C98.9184 56.2861 98.7481 56.2161 98.5364 56.2161H97.6527V57.7371ZM100.387 58.4137V54.0466H101.096V58.4137H100.387Z" fill="#2B3131"/>
<path d="M105.546 58.493C104.898 58.493 104.359 58.2737 103.931 57.8398C103.503 57.4059 103.291 56.8694 103.291 56.2255C103.291 55.5863 103.503 55.0451 103.931 54.6112C104.359 54.1773 104.898 53.958 105.546 53.958C105.938 53.958 106.297 54.0513 106.628 54.2379C106.96 54.4246 107.217 54.6812 107.401 54.9984L106.785 55.3624C106.67 55.1477 106.499 54.9751 106.283 54.8491C106.062 54.7232 105.818 54.6579 105.546 54.6579C105.086 54.6579 104.713 54.8072 104.428 55.1011C104.143 55.395 104 55.7729 104 56.2255C104 56.6781 104.143 57.0513 104.428 57.3499C104.713 57.6439 105.086 57.7932 105.546 57.7932C105.818 57.7932 106.067 57.7278 106.288 57.6019C106.508 57.4759 106.679 57.3033 106.789 57.0886L107.406 57.4432C107.227 57.7652 106.969 58.0171 106.637 58.2084C106.306 58.3997 105.938 58.493 105.546 58.493Z" fill="#2B3131"/>
<path d="M112.124 54.0466V58.4137H111.415V55.3017L110.099 57.4992H110.011L108.695 55.297V58.4183H107.986V54.0513H108.75L110.053 56.2348L111.36 54.0513H112.124V54.0466Z" fill="#2B3131"/>
<path d="M116.602 57.8352C116.17 58.2737 115.64 58.493 115.014 58.493C114.388 58.493 113.859 58.2737 113.426 57.8352C112.994 57.3966 112.777 56.86 112.777 56.2302C112.777 55.6003 112.994 55.0638 113.426 54.6252C113.859 54.1866 114.388 53.9673 115.014 53.9673C115.64 53.9673 116.17 54.1866 116.602 54.6252C117.035 55.0638 117.251 55.6003 117.251 56.2302C117.251 56.86 117.035 57.3966 116.602 57.8352ZM113.924 57.3499C114.218 57.6485 114.582 57.7978 115.014 57.7978C115.447 57.7978 115.811 57.6485 116.105 57.3499C116.4 57.0513 116.547 56.6781 116.547 56.2302C116.547 55.7823 116.4 55.409 116.105 55.1104C115.811 54.8118 115.447 54.6625 115.014 54.6625C114.582 54.6625 114.218 54.8118 113.924 55.1104C113.629 55.409 113.482 55.7823 113.482 56.2302C113.482 56.6781 113.629 57.0513 113.924 57.3499Z" fill="#2B3131"/>
<path d="M122.471 58.4137H121.675L120.188 56.3654V58.4137H119.479V56.3654L117.992 58.4137H117.192L118.807 56.1788L117.251 54.0466H118.052L119.479 56.0295V54.0466H120.188V56.0295L121.615 54.0466H122.411L120.86 56.1788L122.471 58.4137Z" fill="#2B3131"/>
<path d="M123.704 57.7278H125.619V58.4137H122.996V54.0466H125.587V54.7325H123.704V55.8662H125.43V56.5474H123.704V57.7278Z" fill="#2B3131"/>
<path d="M130.401 54.0466V58.4137H129.693V55.3017L128.376 57.4992H128.289L126.972 55.297V58.4183H126.264V54.0513H127.028L128.33 56.2348L129.637 54.0513H130.401V54.0466Z" fill="#2B3131"/>
<path d="M134.424 53.9627C135.073 53.9627 135.612 54.182 136.031 54.6159C136.454 55.0498 136.661 55.5863 136.661 56.2302C136.661 56.8694 136.45 57.4106 136.031 57.8445C135.607 58.2784 135.073 58.4977 134.424 58.4977C134.028 58.4977 133.665 58.4044 133.333 58.2131C133.002 58.0218 132.744 57.7699 132.56 57.4479L133.177 57.0933C133.292 57.308 133.462 57.4806 133.683 57.6066C133.904 57.7325 134.153 57.7979 134.424 57.7979C134.825 57.7979 135.156 57.6859 135.423 57.4619C135.69 57.238 135.856 56.9394 135.925 56.5708H133.849V55.8989H135.925C135.86 55.5304 135.69 55.2318 135.423 55.0078C135.156 54.7839 134.825 54.6719 134.424 54.6719C134.153 54.6719 133.904 54.7372 133.683 54.8632C133.462 54.9891 133.292 55.1618 133.177 55.3764L132.56 55.0078C132.744 54.6859 133.002 54.4339 133.333 54.2473C133.669 54.056 134.033 53.9627 134.424 53.9627Z" fill="#2B3131"/>
<path d="M139.874 54.0466V54.7325H138.659V58.4137H137.95V54.7325H136.73V54.0466H139.874Z" fill="#2B3131"/>
<path d="M143.768 57.8352C143.335 58.2737 142.806 58.493 142.18 58.493C141.554 58.493 141.025 58.2737 140.592 57.8352C140.159 57.3966 139.943 56.86 139.943 56.2302C139.943 55.6003 140.159 55.0638 140.592 54.6252C141.025 54.1866 141.554 53.9673 142.18 53.9673C142.806 53.9673 143.335 54.1866 143.768 54.6252C144.201 55.0638 144.417 55.6003 144.417 56.2302C144.417 56.86 144.201 57.3966 143.768 57.8352ZM141.089 57.3499C141.384 57.6485 141.747 57.7978 142.18 57.7978C142.613 57.7978 142.976 57.6485 143.271 57.3499C143.565 57.0513 143.713 56.6781 143.713 56.2302C143.713 55.7823 143.565 55.409 143.271 55.1104C142.976 54.8118 142.613 54.6625 142.18 54.6625C141.747 54.6625 141.384 54.8118 141.089 55.1104C140.795 55.409 140.647 55.7823 140.647 56.2302C140.647 56.6781 140.795 57.0513 141.089 57.3499Z" fill="#2B3131"/>
<path d="M149.848 57.7278H150.313V59.2488H149.604V58.4137H146.981V59.2488H146.272V57.7278H146.672C146.925 57.3966 147.05 56.8927 147.05 56.2255V54.0466H149.853V57.7278H149.848ZM147.446 57.7278H149.135V54.7185H147.754V56.2348C147.754 56.8833 147.653 57.3826 147.446 57.7278Z" fill="#2B3131"/>
<path d="M154.479 57.8352C154.046 58.2737 153.517 58.493 152.891 58.493C152.265 58.493 151.735 58.2737 151.303 57.8352C150.87 57.3966 150.654 56.86 150.654 56.2302C150.654 55.6003 150.87 55.0638 151.303 54.6252C151.735 54.1866 152.265 53.9673 152.891 53.9673C153.517 53.9673 154.046 54.1866 154.479 54.6252C154.911 55.0638 155.128 55.6003 155.128 56.2302C155.128 56.86 154.911 57.3966 154.479 57.8352ZM151.8 57.3499C152.094 57.6485 152.458 57.7978 152.891 57.7978C153.323 57.7978 153.687 57.6485 153.982 57.3499C154.276 57.0513 154.423 56.6781 154.423 56.2302C154.423 55.7823 154.276 55.409 153.982 55.1104C153.687 54.8118 153.323 54.6625 152.891 54.6625C152.458 54.6625 152.094 54.8118 151.8 55.1104C151.505 55.409 151.358 55.7823 151.358 56.2302C151.358 56.6781 151.505 57.0513 151.8 57.3499Z" fill="#2B3131"/>
<path d="M159.035 58.4137H158.188L156.485 56.3375V58.4137H155.777V54.0466H156.485V56.0062L158.129 54.0466H158.976L157.226 56.1742L159.035 58.4137Z" fill="#2B3131"/>
<path d="M162.405 58.4137L162.101 57.5319H160.26L159.956 58.4137H159.183L160.748 54.0466H161.599L163.16 58.4137H162.405ZM160.499 56.86H161.871L161.185 54.8864L160.499 56.86Z" fill="#2B3131"/>
<path d="M165.829 56.1462C166.271 56.3561 166.487 56.7107 166.487 57.2006C166.487 57.5832 166.345 57.8958 166.059 58.1338C165.774 58.3717 165.401 58.493 164.941 58.493C164.149 58.493 163.629 58.1571 163.371 57.4806L163.983 57.126C164.112 57.5879 164.43 57.8165 164.941 57.8165C165.212 57.8165 165.419 57.7558 165.562 57.6392C165.705 57.5226 165.778 57.3593 165.778 57.1633C165.778 56.9673 165.709 56.8087 165.571 56.6921C165.433 56.5754 165.24 56.5148 164.987 56.5148H164.462V55.8663H164.844C165.088 55.8663 165.277 55.8103 165.41 55.6983C165.544 55.5863 165.613 55.437 165.613 55.2504C165.613 55.0638 165.553 54.9145 165.429 54.8025C165.304 54.6905 165.129 54.6392 164.899 54.6392C164.471 54.6392 164.181 54.8352 164.034 55.2317L163.431 54.8771C163.712 54.2706 164.2 53.9673 164.899 53.9673C165.323 53.9673 165.668 54.084 165.93 54.3126C166.193 54.5412 166.326 54.8445 166.326 55.2131C166.331 55.6236 166.165 55.9362 165.829 56.1462Z" fill="#2B3131"/>
<path d="M169.921 58.4137L169.617 57.5319H167.776L167.472 58.4137H166.699L168.264 54.0466H169.116L170.676 58.4137H169.921ZM168.015 56.86H169.387L168.701 54.8864L168.015 56.86Z" fill="#2B3131"/>
<path d="M173.649 54.0466V54.7325H172.434V58.4137H171.725V54.7325H170.506V54.0466H173.649Z" fill="#2B3131"/>
<path d="M175.767 55.5443C176.172 55.5443 176.512 55.6843 176.788 55.9595C177.06 56.2348 177.198 56.5754 177.198 56.9813C177.198 57.3872 177.06 57.7278 176.788 58.0031C176.517 58.2784 176.176 58.4137 175.767 58.4137H174.174V54.0466H174.883V55.5443H175.767ZM175.767 57.7371C175.978 57.7371 176.149 57.6672 176.287 57.5225C176.42 57.3779 176.489 57.1959 176.489 56.9766C176.489 56.7574 176.42 56.5754 176.287 56.4308C176.149 56.2861 175.978 56.2161 175.767 56.2161H174.883V57.7371H175.767Z" fill="#2B3131"/>
<path d="M178.501 58.3483C178.409 58.4417 178.303 58.4836 178.174 58.4836C178.045 58.4836 177.939 58.437 177.847 58.3483C177.755 58.255 177.714 58.1477 177.714 58.0171C177.714 57.8864 177.76 57.7791 177.847 57.6858C177.934 57.5925 178.045 57.5505 178.178 57.5505C178.307 57.5505 178.413 57.5972 178.505 57.6858C178.597 57.7791 178.639 57.8864 178.639 58.0171C178.639 58.1477 178.593 58.2597 178.501 58.3483ZM177.907 57.042L177.773 55.297V54.0466H178.574V55.297L178.432 57.042H177.907Z" fill="#2B3131"/>
<path d="M162.451 27.3079L174.303 12.4899H162.451L152.481 24.9378V12.4899H141.356V49.3763H152.481V40.5863L155.56 36.6765L164.591 49.3763H178.634L162.451 27.3079Z" fill="#2B3131"/>
<path d="M182.353 19.283C185.078 17.4308 186.974 14.3281 186.822 10.9036C186.578 5.40279 182.422 0.75116 176.807 0.75116C174.146 0.75116 171.541 1.95956 169.654 3.86313L169.649 3.8678C169.59 3.92845 169.516 4.0031 169.442 4.08242C168.835 4.72161 168.255 5.38413 167.702 6.06998L164.089 10.5443L175.905 10.5536C176.047 10.1944 176.42 9.92845 176.807 9.92845C177.221 9.92845 177.552 10.1944 177.695 10.5536L177.746 10.7169C177.76 10.7776 177.769 10.8429 177.769 10.9036C177.778 11.0809 177.723 11.2442 177.635 11.3888V11.3981L177.621 11.4168C177.58 11.4774 177.539 11.5334 177.483 11.5848L164.881 27.3546L164.987 27.4945H187.596V19.283H182.353Z" fill="#DA261C"/>
<path d="M20.0728 26.9816C23.2441 26.9816 25.9275 28.0827 28.123 30.2848C30.3186 32.487 31.414 35.1977 31.414 38.4124C31.414 41.6083 30.314 44.3144 28.1092 46.5259C25.9045 48.7374 23.2257 49.8478 20.0728 49.8478C17.3525 49.8478 14.9821 49.0033 12.9661 47.3097C10.9455 45.6161 9.67969 43.4466 9.16418 40.7965H6.50838V49.3813H0.97583V27.4528H6.50838V35.4077H9.32068C9.93745 32.9209 11.2308 30.896 13.2008 29.333C15.1662 27.7654 17.4584 26.9816 20.0728 26.9816ZM15.9027 42.6907C17.0165 43.8058 18.4066 44.3657 20.0728 44.3657C21.7436 44.3657 23.1336 43.8058 24.2429 42.6907C25.3568 41.5757 25.9137 40.148 25.9137 38.417C25.9137 36.6861 25.3568 35.2584 24.2429 34.1433C23.129 33.0282 21.739 32.4683 20.0728 32.4683C18.402 32.4683 17.0119 33.0236 15.9027 34.1293C14.7888 35.2351 14.2318 36.6674 14.2318 38.4217C14.2318 40.148 14.7888 41.5757 15.9027 42.6907Z" fill="#2B3131"/>
<path d="M42.3825 27.4526C44.5642 27.4526 46.4007 28.1711 47.8828 29.6128C49.3649 31.0544 50.1059 32.8927 50.1059 35.1275C50.1059 37.3624 49.3649 39.2006 47.8828 40.6423C46.4007 42.084 44.5642 42.8025 42.3825 42.8025H39.5103V49.381H33.9778V27.4526H42.3825ZM42.3825 37.4743C42.9992 37.4743 43.5194 37.2551 43.9428 36.8165C44.3663 36.3779 44.578 35.8134 44.578 35.1229C44.578 34.4324 44.3663 33.8771 43.9428 33.4479C43.5194 33.0187 42.9992 32.8041 42.3825 32.8041H39.5103V37.4697H42.3825V37.4743Z" fill="#2B3131"/>
<path d="M64.1996 49.3764V38.3515L56.5682 49.3764H52.2738V27.4479H57.8063V38.4728L65.4378 27.4479H69.7045V49.3764H64.1996Z" fill="#2B3131"/>
<path d="M83.5773 49.8476C80.3231 49.8476 77.6305 48.7558 75.4948 46.5723C73.3637 44.3888 72.2959 41.6688 72.2959 38.4121C72.2959 35.1555 73.3637 32.4355 75.4948 30.252C77.6259 28.0684 80.3185 26.9767 83.5773 26.9767C85.5335 26.9767 87.347 27.4479 89.0178 28.3857C90.6886 29.3235 91.9958 30.5879 92.944 32.1742L88.1525 34.9642C87.7382 34.1897 87.1261 33.5786 86.316 33.1307C85.5013 32.6828 84.5899 32.4588 83.5819 32.4588C81.8513 32.4588 80.4566 33.0093 79.3934 34.1058C78.3301 35.2022 77.8008 36.6392 77.8008 38.4121C77.8008 40.1851 78.3301 41.6221 79.3934 42.7185C80.452 43.8149 81.8513 44.3608 83.5819 44.3608C84.5899 44.3608 85.5013 44.1369 86.316 43.689C87.1307 43.2411 87.7428 42.6205 88.1525 41.8274L92.944 44.6454C91.9958 46.2551 90.6932 47.5241 89.0362 48.4526C87.3746 49.381 85.5565 49.8476 83.5773 49.8476Z" fill="#2B3131"/>
<path d="M109.878 27.4526V32.874H104.529V49.381H98.9967V32.8694H93.6483V27.4526H109.878Z" fill="#2B3131"/>
<path d="M111.885 49.3764V27.4479H117.417V34.0265H120.289C122.471 34.0265 124.307 34.7543 125.79 36.2053C127.272 37.6563 128.013 39.4899 128.013 41.7014C128.013 43.9363 127.272 45.7745 125.79 47.2162C124.307 48.6579 122.471 49.3764 120.289 49.3764H111.885ZM117.417 44.0529H120.289C120.906 44.0529 121.426 43.8336 121.85 43.3951C122.273 42.9565 122.485 42.3919 122.485 41.7014C122.485 41.0109 122.273 40.4557 121.85 40.0265C121.426 39.5972 120.906 39.3826 120.289 39.3826H117.417V44.0529ZM129.808 49.3764V27.4479H135.308V49.3764H129.808Z" fill="#2B3131"/>
<path d="M86.6152 16.1291H0.97583V17.0622H86.6152V16.1291Z" fill="#DA261C"/>
</svg>
